<svg xmlns="http://www.w3.org/2000/svg" viewBox="0 0 256 256" role="img" aria-label="Hands getting wet under water drops">
  <path d="M38 72Q64 58 82 77L107 105Q115 116 107 127Q99 137 88 127L72 112L87 168Q91 185 76 194Q61 201 52 187L31 151Q23 137 29 120Z" fill="#FFD15C" stroke="#D6A13C" stroke-width="4" stroke-linejoin="round"/>
  <path d="M218 72Q192 58 174 77L149 105Q141 116 149 127Q157 137 168 127L184 112L169 168Q165 185 180 194Q195 201 204 187L225 151Q233 137 227 120Z" fill="#FFD15C" stroke="#D6A13C" stroke-width="4" stroke-linejoin="round"/>
  <path d="M112 36L106 56M128 28V51M144 36L150 56" stroke="#75BDDA" stroke-width="7" stroke-linecap="round"/>
  <path d="M112 84Q128 69 144 84" fill="none" stroke="#75BDDA" stroke-width="6" stroke-linecap="round"/>
  <path d="M78 152L66 135M178 152L190 135" stroke="#F2B134" stroke-width="4" stroke-linecap="round"/>
</svg>
